# xmcd
#
# Track frame offsets:
#	150
#	12830
#	27503
#	47774
#	73088
#	88520
#	102593
#	115677
#	130368
#	143232
#	156691
#	171602
#	183763
#	197954
#	210500
#	222888
#	238555
#	253762
#	265698
#	276722
#
# Disc length: 3995
#
# Revision: 1
# Processed by: cddbd v1.5.1PL0 Copyright (c) Steve Scherf et al.
# Submitted via: CDex 1.51
# Normalized: r0:DSETVAR1,TDELIM( - )
#
DISCID=390f9914
DTITLE=Various Artist - Birth of The Blues
DYEAR=1900
DGENRE=Blues
TTITLE0=Della Reese - Birth of the Blues
TTITLE1=Big Bill Broonzy - Baby Please Don't Go
TTITLE2=Carmen Mcrae - Body and Soul
TTITLE3=Howlin' Wolf - Little Red Rooster
TTITLE4=Billie Holiday - Stormy Blues
TTITLE5=Muddy Waters - 40 Days and 40 Nights
TTITLE6=Dinah Washington - All or nothing blues
TTITLE7=John Lee Hooker - Wandering Blues
TTITLE8=Bessie Smith - I'm wild about that thing
TTITLE9=Champion Jack Dupree - Walking Blues
TTITLE10=Sarah Vaughan - Summertime
TTITLE11=Charles Brown - Trouble Blues
TTITLE12=Mildred Bailey - Lover Come Back To Me
TTITLE13=Smokey Hogg - Overhead Blues
TTITLE14=Peggy Lee - I Gotta Right To sing the blues
TTITLE15=Jimmy Witherspoon - Trouble In Mind
TTITLE16=Billie HOliday - T'ain't Nobody's Bizness if I Do
TTITLE17=Big Joe Williams - Old Saw Mill Blues
TTITLE18=Irma Thomas - Set Me Free
TTITLE19=Sam Lightnin' Hopkins - I'm Gonna Meet My Baby (live)
EXTD=
EXTT0=
EXTT1=
EXTT2=
EXTT3=
EXTT4=
EXTT5=
EXTT6=
EXTT7=
EXTT8=
EXTT9=
EXTT10=
EXTT11=
EXTT12=
EXTT13=
EXTT14=
EXTT15=
EXTT16=
EXTT17=
EXTT18=
EXTT19=
PLAYORDER=
